<?xml version="1.0" standalone="no"?>
<!DOCTYPE svg PUBLIC "-//W3C//DTD SVG 1.1//EN"
"http://www.w3.org/Graphics/SVG/1.1/DTD/svg11.dtd">

<svg width="366" height="389" view_box="0 0 366 389"
xmlns="http://www.w3.org/2000/svg"
xmlns:link="http://www.w3.org/1999/xlink">\n\n<desc>Généré par Mocodo 2.3.7 le Tue, 03 May 2022 04:35:05</desc>

<rect id="frame" x="0" y="0" width="366" height="389" fill="#ffffff" stroke="none" stroke-width="0"/>

<!-- Association Reviews -->
<line x1="52" y1="338" x2="170" y2="338" stroke="#d6604d" stroke-width="2"/>
<text x="93" y="355.0" fill="#4d4d4d" font-family="Verdana" font-size="12">0,N</text>
<line x1="170" y1="186" x2="170" y2="338" stroke="#d6604d" stroke-width="2"/>
<text x="175.0" y="288" fill="#4d4d4d" font-family="Verdana" font-size="12">0,N</text>
<g id="association-Reviews">
	<path d="M 197 296 a 14 14 90 0 1 14 14 V 321 h -82 V 310 a 14 14 90 0 1 14 -14" fill="#f4a582" stroke="#f4a582" stroke-width="0"/>
	<path d="M 211 321.0 v 45 a 14 14 90 0 1 -14 14 H 143 a 14 14 90 0 1 -14 -14 V 321.0 H 82" fill="#fddbc7" stroke="#fddbc7" stroke-width="0"/>
	<rect x="129" y="296" width="82" height="84" fill="none" rx="14" stroke="#d6604d" stroke-width="2"/>
	<line x1="129" y1="321" x2="211" y2="321" stroke="#d6604d" stroke-width="1"/>
	<text x="145" y="313.7" fill="#000000" font-family="Verdana" font-size="12">Reviews</text>
	<text x="136" y="338.8" fill="#000000" font-family="Verdana" font-size="12">content</text>
	<text x="136" y="355.8" fill="#000000" font-family="Verdana" font-size="12">rating</text>
	<text x="136" y="372.8" fill="#000000" font-family="Verdana" font-size="12">watched at</text>
</g>

<!-- Association Has -->
<line x1="300" y1="338" x2="300" y2="186" stroke="#d6604d" stroke-width="2"/>
<text x="305.0" y="288" fill="#4d4d4d" font-family="Verdana" font-size="12">1,1</text>
<line x1="170" y1="186" x2="300" y2="186" stroke="#d6604d" stroke-width="2"/>
<text x="218" y="203.0" fill="#4d4d4d" font-family="Verdana" font-size="12">0,N</text>
<g id="association-Has">
	<path d="M 305 161 a 14 14 90 0 1 14 14 V 186 h -38 V 175 a 14 14 90 0 1 14 -14" fill="#f4a582" stroke="#f4a582" stroke-width="0"/>
	<path d="M 319 186.0 v 11 a 14 14 90 0 1 -14 14 H 295 a 14 14 90 0 1 -14 -14 V 186.0 H 38" fill="#fddbc7" stroke="#fddbc7" stroke-width="0"/>
	<rect x="281" y="161" width="38" height="50" fill="none" rx="14" stroke="#d6604d" stroke-width="2"/>
	<line x1="281" y1="186" x2="319" y2="186" stroke="#d6604d" stroke-width="1"/>
	<text x="288" y="178.7" fill="#000000" font-family="Verdana" font-size="12">Has</text>
</g>

<!-- Association Plays -->
<line x1="52" y1="51" x2="52" y2="186" stroke="#d6604d" stroke-width="2"/>
<text x="57.0" y="110" fill="#4d4d4d" font-family="Verdana" font-size="12">0,N</text>
<line x1="170" y1="186" x2="52" y2="186" stroke="#d6604d" stroke-width="2"/>
<text x="100" y="203.0" fill="#4d4d4d" font-family="Verdana" font-size="12">0,N</text>
<g id="association-Plays">
	<path d="M 81 152 a 14 14 90 0 1 14 14 V 177 h -86 V 166 a 14 14 90 0 1 14 -14" fill="#f4a582" stroke="#f4a582" stroke-width="0"/>
	<path d="M 95 177.0 v 29 a 14 14 90 0 1 -14 14 H 23 a 14 14 90 0 1 -14 -14 V 177.0 H 86" fill="#fddbc7" stroke="#fddbc7" stroke-width="0"/>
	<rect x="9" y="152" width="86" height="68" fill="none" rx="14" stroke="#d6604d" stroke-width="2"/>
	<line x1="9" y1="177" x2="95" y2="177" stroke="#d6604d" stroke-width="1"/>
	<text x="36" y="169.7" fill="#000000" font-family="Verdana" font-size="12">Plays</text>
	<text x="16" y="194.8" fill="#000000" font-family="Verdana" font-size="12">role</text>
	<text x="16" y="211.8" fill="#000000" font-family="Verdana" font-size="12">credit order</text>
</g>

<!-- Association Belongs to -->
<line x1="170" y1="186" x2="170" y2="51" stroke="#d6604d" stroke-width="2"/>
<text x="175.0" y="93" fill="#4d4d4d" font-family="Verdana" font-size="12">0,N</text>
<line x1="300" y1="51" x2="170" y2="51" stroke="#d6604d" stroke-width="2"/>
<text x="234" y="68.0" fill="#4d4d4d" font-family="Verdana" font-size="12">0,N</text>
<g id="association-Belongs to">
	<path d="M 196 26 a 14 14 90 0 1 14 14 V 51 h -80 V 40 a 14 14 90 0 1 14 -14" fill="#f4a582" stroke="#f4a582" stroke-width="0"/>
	<path d="M 210 51.0 v 11 a 14 14 90 0 1 -14 14 H 144 a 14 14 90 0 1 -14 -14 V 51.0 H 80" fill="#fddbc7" stroke="#fddbc7" stroke-width="0"/>
	<rect x="130" y="26" width="80" height="50" fill="none" rx="14" stroke="#d6604d" stroke-width="2"/>
	<line x1="130" y1="51" x2="210" y2="51" stroke="#d6604d" stroke-width="1"/>
	<text x="137" y="43.7" fill="#000000" font-family="Verdana" font-size="12">Belongs to</text>
</g>

<!-- Entity GENRE -->
<g id="entity-GENRE">
	<g id="frame-GENRE">
		<rect x="261" y="17" width="78" height="25" fill="#bababa" stroke="#bababa" stroke-width="0"/>
		<rect x="261" y="42.0" width="78" height="43" fill="#e0e0e0" stroke="#e0e0e0" stroke-width="0"/>
		<rect x="261" y="17" width="78" height="68" fill="none" stroke="#878787" stroke-width="2"/>
		<line x1="261" y1="42" x2="339" y2="42" stroke="#878787" stroke-width="1"/>
	</g>
	<text x="278" y="34.7" fill="#000000" font-family="Verdana" font-size="12">GENRE</text>
	<text x="266" y="59.8" fill="#000000" font-family="Verdana" font-size="12">genre code</text>
	<line x1="266" y1="62" x2="334" y2="62" stroke="#000000" stroke-width="1"/>
	<text x="266" y="76.8" fill="#000000" font-family="Verdana" font-size="12">name</text>
</g>

<!-- Entity PERSON -->
<g id="entity-PERSON">
	<g id="frame-PERSON">
		<rect x="10" y="9" width="84" height="25" fill="#bababa" stroke="#bababa" stroke-width="0"/>
		<rect x="10" y="34.0" width="84" height="59" fill="#e0e0e0" stroke="#e0e0e0" stroke-width="0"/>
		<rect x="10" y="9" width="84" height="84" fill="none" stroke="#878787" stroke-width="2"/>
		<line x1="10" y1="34" x2="94" y2="34" stroke="#878787" stroke-width="1"/>
	</g>
	<text x="26" y="26.7" fill="#000000" font-family="Verdana" font-size="12">PERSON</text>
	<text x="15" y="51.8" fill="#000000" font-family="Verdana" font-size="12">person code</text>
	<line x1="15" y1="54" x2="89" y2="54" stroke="#000000" stroke-width="1"/>
	<text x="15" y="68.8" fill="#000000" font-family="Verdana" font-size="12">firstname</text>
	<text x="15" y="85.8" fill="#000000" font-family="Verdana" font-size="12">lastname</text>
</g>

<!-- Entity SEASON -->
<g id="entity-SEASON">
	<g id="frame-SEASON">
		<rect x="243" y="296" width="114" height="25" fill="#bababa" stroke="#bababa" stroke-width="0"/>
		<rect x="243" y="321.0" width="114" height="59" fill="#e0e0e0" stroke="#e0e0e0" stroke-width="0"/>
		<rect x="243" y="296" width="114" height="84" fill="none" stroke="#878787" stroke-width="2"/>
		<line x1="243" y1="321" x2="357" y2="321" stroke="#878787" stroke-width="1"/>
	</g>
	<text x="274" y="313.7" fill="#000000" font-family="Verdana" font-size="12">SEASON</text>
	<text x="248" y="338.8" fill="#000000" font-family="Verdana" font-size="12">season code</text>
	<line x1="248" y1="341" x2="323" y2="341" stroke="#000000" stroke-width="1"/>
	<text x="248" y="355.8" fill="#000000" font-family="Verdana" font-size="12">number</text>
	<text x="248" y="372.8" fill="#000000" font-family="Verdana" font-size="12">episodes number</text>
</g>

<!-- Entity USER -->
<g id="entity-USER">
	<g id="frame-USER">
		<rect x="16" y="296" width="72" height="25" fill="#bababa" stroke="#bababa" stroke-width="0"/>
		<rect x="16" y="321.0" width="72" height="59" fill="#e0e0e0" stroke="#e0e0e0" stroke-width="0"/>
		<rect x="16" y="296" width="72" height="84" fill="none" stroke="#878787" stroke-width="2"/>
		<line x1="16" y1="321" x2="88" y2="321" stroke="#878787" stroke-width="1"/>
	</g>
	<text x="35" y="313.7" fill="#000000" font-family="Verdana" font-size="12">USER</text>
	<text x="21" y="338.8" fill="#000000" font-family="Verdana" font-size="12">email</text>
	<line x1="21" y1="341" x2="55" y2="341" stroke="#000000" stroke-width="1"/>
	<text x="21" y="355.8" fill="#000000" font-family="Verdana" font-size="12">username</text>
	<text x="21" y="372.8" fill="#000000" font-family="Verdana" font-size="12">role</text>
</g>

<!-- Entity MOVIE -->
<g id="entity-MOVIE">
	<g id="frame-MOVIE">
		<rect x="127" y="101" width="86" height="25" fill="#bababa" stroke="#bababa" stroke-width="0"/>
		<rect x="127" y="126.0" width="86" height="145" fill="#e0e0e0" stroke="#e0e0e0" stroke-width="0"/>
		<rect x="127" y="101" width="86" height="170" fill="none" stroke="#878787" stroke-width="2"/>
		<line x1="127" y1="126" x2="213" y2="126" stroke="#878787" stroke-width="1"/>
	</g>
	<text x="149" y="118.7" fill="#000000" font-family="Verdana" font-size="12">MOVIE</text>
	<text x="132" y="143.7" fill="#000000" font-family="Verdana" font-size="12">ISAN</text>
	<line x1="132" y1="146" x2="163" y2="146" stroke="#000000" stroke-width="1"/>
	<text x="132" y="160.7" fill="#000000" font-family="Verdana" font-size="12">title</text>
	<text x="132" y="177.7" fill="#000000" font-family="Verdana" font-size="12">release date</text>
	<text x="132" y="194.8" fill="#000000" font-family="Verdana" font-size="12">duration</text>
	<text x="132" y="211.8" fill="#000000" font-family="Verdana" font-size="12">summary</text>
	<text x="132" y="228.8" fill="#000000" font-family="Verdana" font-size="12">synopsis</text>
	<text x="132" y="245.8" fill="#000000" font-family="Verdana" font-size="12">poster</text>
	<text x="132" y="262.8" fill="#000000" font-family="Verdana" font-size="12">rating</text>
</g>
</svg>